<svg width="26" height="26" viewBox="0 0 26 26" fill="none" xmlns="http://www.w3.org/2000/svg">
<path d="M7.54 0H18.46C22.62 0 26 3.38 26 7.54V18.46C26 20.4597 25.2056 22.3776 23.7916 23.7916C22.3776 25.2056 20.4597 26 18.46 26H7.54C3.38 26 0 22.62 0 18.46V7.54C0 5.54027 0.794391 3.62244 2.20841 2.20841C3.62244 0.794391 5.54027 0 7.54 0ZM7.28 2.6C6.03879 2.6 4.84841 3.09307 3.97074 3.97074C3.09307 4.84841 2.6 6.03879 2.6 7.28V18.72C2.6 21.307 4.693 23.4 7.28 23.4H18.72C19.9612 23.4 21.1516 22.9069 22.0293 22.0293C22.9069 21.1516 23.4 19.9612 23.4 18.72V7.28C23.4 4.693 21.307 2.6 18.72 2.6H7.28ZM19.825 4.55C20.256 4.55 20.6693 4.7212 20.974 5.02595C21.2788 5.3307 21.45 5.74402 21.45 6.175C21.45 6.60598 21.2788 7.0193 20.974 7.32405C20.6693 7.62879 20.256 7.8 19.825 7.8C19.394 7.8 18.9807 7.62879 18.6759 7.32405C18.3712 7.0193 18.2 6.60598 18.2 6.175C18.2 5.74402 18.3712 5.3307 18.6759 5.02595C18.9807 4.7212 19.394 4.55 19.825 4.55ZM13 6.5C14.7239 6.5 16.3772 7.18482 17.5962 8.40381C18.8152 9.62279 19.5 11.2761 19.5 13C19.5 14.7239 18.8152 16.3772 17.5962 17.5962C16.3772 18.8152 14.7239 19.5 13 19.5C11.2761 19.5 9.62279 18.8152 8.40381 17.5962C7.18482 16.3772 6.5 14.7239 6.5 13C6.5 11.2761 7.18482 9.62279 8.40381 8.40381C9.62279 7.18482 11.2761 6.5 13 6.5ZM13 9.1C11.9657 9.1 10.9737 9.51089 10.2423 10.2423C9.51089 10.9737 9.1 11.9657 9.1 13C9.1 14.0343 9.51089 15.0263 10.2423 15.7577C10.9737 16.4891 11.9657 16.9 13 16.9C14.0343 16.9 15.0263 16.4891 15.7577 15.7577C16.4891 15.0263 16.9 14.0343 16.9 13C16.9 11.9657 16.4891 10.9737 15.7577 10.2423C15.0263 9.51089 14.0343 9.1 13 9.1Z" fill="#050505"/>
</svg>
