<svg width="28" height="22" viewBox="0 0 28 22" fill="none" xmlns="http://www.w3.org/2000/svg">
<path d="M2 4.66666C2 3.95942 2.28095 3.28114 2.78105 2.78105C3.28114 2.28095 3.95942 2 4.66666 2H23.3333C24.0405 2 24.7188 2.28095 25.2189 2.78105C25.719 3.28114 25.9999 3.95942 25.9999 4.66666V18C25.9999 18.7072 25.719 19.3855 25.2189 19.8856C24.7188 20.3857 24.0405 20.6666 23.3333 20.6666H4.66666C3.95942 20.6666 3.28114 20.3857 2.78105 19.8856C2.28095 19.3855 2 18.7072 2 18V4.66666Z" stroke="#050505" stroke-width="2.5" stroke-linecap="round" stroke-linejoin="round"/>
<path d="M2 4.66646L14 12.6664L25.9999 4.66646" stroke="#050505" stroke-width="2.5" stroke-linecap="round" stroke-linejoin="round"/>
</svg>
