<svg width="26" height="26" viewBox="0 0 26 26" fill="none" xmlns="http://www.w3.org/2000/svg">
<path d="M13 26C5.8201 26 0 20.1799 0 13C0 5.8201 5.8201 0 13 0C20.1799 0 26 5.8201 26 13C26 20.1799 20.1799 26 13 26ZM14.7342 13H11.0487V9.1H14.7329C15.2501 9.1 15.7461 9.30545 16.1118 9.67114C16.4775 10.0368 16.6829 10.5328 16.6829 11.05C16.6829 11.5672 16.4775 12.0632 16.1118 12.4289C15.7461 12.7946 15.2514 13 14.7342 13ZM14.7329 6.5H8.4487V19.5H11.0487V15.6H14.7329C15.9396 15.6 17.0969 15.1206 17.9502 14.2673C18.8035 13.414 19.2829 12.2567 19.2829 11.05C19.2829 9.84326 18.8035 8.68595 17.9502 7.83266C17.0969 6.97937 15.9396 6.5 14.7329 6.5Z" fill="#050505"/>
</svg>
