<svg xmlns="http://www.w3.org/2000/svg" width="32" height="32" viewBox="0 0 32 32" fill="none">
    <path d="M16.0199 4.125C15.6155 4.125 15.2273 4.28757 14.9406 4.57754L16.0199 4.125ZM16.0199 4.125C16.4243 4.125 16.8126 4.28757 17.0992 4.57754L16.0199 4.125ZM14.2778 9.62641L7.73112 16.2575L17.0993 4.5776L26.4658 14.0649C26.7349 14.3586 26.8816 14.7466 26.8748 15.1479C26.8679 15.5499 26.7075 15.9332 26.4276 16.2174C26.1471 16.5007 25.7694 16.6626 25.3741 16.6695C24.9793 16.6764 24.597 16.5283 24.3072 16.2559L17.7621 9.62641L17.5481 9.40969V9.71423V26.3255C17.5481 26.737 17.3867 27.1313 17.1 27.4217C16.8132 27.7121 16.4247 27.875 16.0199 27.875C15.6151 27.875 15.2266 27.7121 14.9399 27.4217C14.6531 27.1313 14.4917 26.737 14.4917 26.3255V9.71423V9.40969L14.2778 9.62641ZM7.73106 16.2575C7.4444 16.5475 7.05618 16.7101 6.65175 16.7101C6.24735 16.7101 5.85915 16.5475 5.57249 16.2576C5.28613 15.9672 5.125 15.5731 5.125 15.162C5.125 14.7509 5.28613 14.3569 5.57249 14.0664L14.9405 4.5776L7.73106 16.2575Z" fill="#050505" stroke="#F1F1F1" stroke-width="0.25"/>
</svg>
