<svg width="315" height="315" viewBox="0 0 315 315" fill="none" xmlns="http://www.w3.org/2000/svg">
<path d="M115.719 169.439H116.201C118.232 169.439 119.976 169.194 121.432 168.703C122.904 168.195 124.115 167.467 125.063 166.52C126.01 165.572 126.713 164.412 127.17 163.041C127.627 161.653 127.855 160.079 127.855 158.318V151.311C127.855 149.973 127.72 148.797 127.449 147.781C127.195 146.766 126.823 145.928 126.332 145.268C125.858 144.59 125.299 144.083 124.656 143.744C124.03 143.406 123.336 143.236 122.574 143.236C121.762 143.236 121.042 143.439 120.416 143.846C119.79 144.235 119.257 144.768 118.816 145.445C118.393 146.122 118.063 146.901 117.826 147.781C117.606 148.645 117.496 149.55 117.496 150.498C117.496 151.446 117.606 152.352 117.826 153.215C118.046 154.061 118.376 154.814 118.816 155.475C119.257 156.118 119.807 156.634 120.467 157.023C121.127 157.396 121.906 157.582 122.803 157.582C123.666 157.582 124.436 157.421 125.113 157.1C125.807 156.761 126.391 156.321 126.865 155.779C127.356 155.238 127.729 154.637 127.982 153.977C128.253 153.316 128.389 152.648 128.389 151.971L130.801 153.291C130.801 154.476 130.547 155.644 130.039 156.795C129.531 157.946 128.82 158.995 127.906 159.943C127.009 160.874 125.968 161.619 124.783 162.178C123.598 162.736 122.329 163.016 120.975 163.016C119.248 163.016 117.716 162.702 116.379 162.076C115.042 161.433 113.908 160.553 112.977 159.436C112.063 158.301 111.369 156.981 110.895 155.475C110.421 153.968 110.184 152.335 110.184 150.574C110.184 148.78 110.471 147.096 111.047 145.521C111.639 143.947 112.477 142.559 113.561 141.357C114.661 140.156 115.973 139.216 117.496 138.539C119.036 137.845 120.746 137.498 122.625 137.498C124.504 137.498 126.214 137.862 127.754 138.59C129.294 139.318 130.615 140.35 131.715 141.688C132.815 143.008 133.661 144.59 134.254 146.436C134.863 148.281 135.168 150.329 135.168 152.58V155.119C135.168 157.523 134.906 159.757 134.381 161.822C133.873 163.887 133.103 165.758 132.07 167.434C131.055 169.092 129.785 170.514 128.262 171.699C126.755 172.884 125.003 173.79 123.006 174.416C121.008 175.042 118.774 175.355 116.303 175.355H115.719V169.439ZM147.279 158.166L141.439 156.77L143.547 138.031H164.316V143.947H149.564L148.65 152.148C149.141 151.861 149.886 151.556 150.885 151.234C151.883 150.896 153.001 150.727 154.236 150.727C156.031 150.727 157.622 151.006 159.01 151.564C160.398 152.123 161.574 152.936 162.539 154.002C163.521 155.068 164.266 156.372 164.773 157.912C165.281 159.452 165.535 161.196 165.535 163.143C165.535 164.785 165.281 166.35 164.773 167.84C164.266 169.312 163.495 170.633 162.463 171.801C161.43 172.952 160.135 173.857 158.578 174.518C157.021 175.178 155.176 175.508 153.043 175.508C151.452 175.508 149.911 175.271 148.422 174.797C146.949 174.323 145.62 173.62 144.436 172.689C143.268 171.758 142.328 170.633 141.617 169.312C140.923 167.975 140.559 166.452 140.525 164.742H147.787C147.889 165.792 148.16 166.697 148.6 167.459C149.057 168.204 149.658 168.779 150.402 169.186C151.147 169.592 152.019 169.795 153.018 169.795C153.949 169.795 154.744 169.617 155.404 169.262C156.064 168.906 156.598 168.415 157.004 167.789C157.41 167.146 157.706 166.401 157.893 165.555C158.096 164.691 158.197 163.76 158.197 162.762C158.197 161.763 158.079 160.857 157.842 160.045C157.605 159.232 157.241 158.53 156.75 157.938C156.259 157.345 155.633 156.888 154.871 156.566C154.126 156.245 153.255 156.084 152.256 156.084C150.902 156.084 149.852 156.296 149.107 156.719C148.38 157.142 147.77 157.624 147.279 158.166ZM170.156 147.096V145.141C170.156 143.736 170.461 142.458 171.07 141.307C171.68 140.156 172.577 139.233 173.762 138.539C174.947 137.845 176.402 137.498 178.129 137.498C179.906 137.498 181.387 137.845 182.572 138.539C183.774 139.233 184.671 140.156 185.264 141.307C185.873 142.458 186.178 143.736 186.178 145.141V147.096C186.178 148.467 185.873 149.728 185.264 150.879C184.671 152.03 183.783 152.952 182.598 153.646C181.413 154.34 179.949 154.688 178.205 154.688C176.445 154.688 174.964 154.34 173.762 153.646C172.577 152.952 171.68 152.03 171.07 150.879C170.461 149.728 170.156 148.467 170.156 147.096ZM175.006 145.141V147.096C175.006 147.688 175.116 148.255 175.336 148.797C175.573 149.322 175.928 149.753 176.402 150.092C176.893 150.413 177.486 150.574 178.18 150.574C178.908 150.574 179.5 150.413 179.957 150.092C180.414 149.753 180.753 149.322 180.973 148.797C181.193 148.255 181.303 147.688 181.303 147.096V145.141C181.303 144.514 181.184 143.939 180.947 143.414C180.727 142.872 180.38 142.441 179.906 142.119C179.449 141.781 178.857 141.611 178.129 141.611C177.452 141.611 176.876 141.781 176.402 142.119C175.928 142.441 175.573 142.872 175.336 143.414C175.116 143.939 175.006 144.514 175.006 145.141ZM187.828 167.891V165.936C187.828 164.548 188.133 163.278 188.742 162.127C189.369 160.976 190.274 160.053 191.459 159.359C192.661 158.665 194.133 158.318 195.877 158.318C197.637 158.318 199.11 158.665 200.295 159.359C201.48 160.053 202.377 160.976 202.986 162.127C203.596 163.278 203.9 164.548 203.9 165.936V167.891C203.9 169.279 203.596 170.548 202.986 171.699C202.394 172.85 201.505 173.773 200.32 174.467C199.135 175.161 197.671 175.508 195.928 175.508C194.167 175.508 192.686 175.161 191.484 174.467C190.283 173.773 189.369 172.85 188.742 171.699C188.133 170.548 187.828 169.279 187.828 167.891ZM192.703 165.936V167.891C192.703 168.5 192.839 169.076 193.109 169.617C193.38 170.159 193.753 170.59 194.227 170.912C194.717 171.234 195.285 171.395 195.928 171.395C196.74 171.395 197.375 171.234 197.832 170.912C198.289 170.59 198.602 170.159 198.771 169.617C198.958 169.076 199.051 168.5 199.051 167.891V165.936C199.051 165.326 198.932 164.759 198.695 164.234C198.458 163.693 198.103 163.261 197.629 162.939C197.172 162.601 196.588 162.432 195.877 162.432C195.166 162.432 194.574 162.601 194.1 162.939C193.643 163.261 193.296 163.693 193.059 164.234C192.822 164.759 192.703 165.326 192.703 165.936ZM197.68 143.312L179.627 172.207L176.072 170.328L194.125 141.434L197.68 143.312Z" fill="#F1F1F1"/>
<path d="M157.5 -6.88454e-06C244.485 -1.06868e-05 315 70.5151 315 157.5C315 244.485 244.485 315 157.5 315C70.5152 315 1.21765e-05 244.485 8.37424e-06 157.5C4.57202e-06 70.5152 70.5152 -3.08232e-06 157.5 -6.88454e-06ZM157.5 244.125C205.342 244.125 244.125 205.342 244.125 157.5C244.125 109.658 205.342 70.875 157.5 70.875C109.658 70.875 70.875 109.658 70.875 157.5C70.875 205.342 109.658 244.125 157.5 244.125Z" fill="#F1F1F1"/>
<path d="M315 157.5C315 197.132 300.058 235.308 273.156 264.411C246.253 293.514 209.368 311.405 169.857 314.514C130.347 317.624 91.1168 305.724 59.9927 281.187C28.8687 256.651 8.13898 221.283 1.93909 182.138C-4.26079 142.994 4.52493 102.951 26.5435 69.9977C48.5622 37.0445 82.195 13.6038 120.732 4.35174C159.27 -4.90028 199.879 0.716617 234.458 20.0819C269.037 39.4471 295.044 71.1371 307.291 108.83L239.885 130.731C233.149 110 218.845 92.5709 199.827 81.92C180.808 71.2691 158.473 68.1798 137.278 73.2685C116.082 78.3571 97.5842 91.2495 85.474 109.374C73.3637 127.498 68.5316 149.522 71.9415 171.051C75.3514 192.581 86.7528 212.033 103.871 225.528C120.989 239.023 142.566 245.568 164.297 243.858C186.027 242.148 206.314 232.308 221.111 216.301C235.907 200.294 244.125 179.298 244.125 157.5L315 157.5Z" fill="url(#paint0_linear_8_115)"/>
<defs>
<linearGradient id="paint0_linear_8_115" x1="-97.9505" y1="-58.4364" x2="399.683" y2="-24.906" gradientUnits="userSpaceOnUse">
<stop stop-color="#FDA2FF"/>
<stop offset="0.505208" stop-color="#782AD5"/>
<stop offset="1" stop-color="#52B8FF"/>
</linearGradient>
</defs>
</svg>
