<svg width="315" height="315" viewBox="0 0 315 315" fill="none" xmlns="http://www.w3.org/2000/svg">
<path d="M157.5 -6.88454e-06C244.485 -1.06868e-05 315 70.5151 315 157.5C315 244.485 244.485 315 157.5 315C70.5152 315 -3.08232e-06 244.485 -6.88454e-06 157.5C-1.06868e-05 70.5152 70.5151 -3.08232e-06 157.5 -6.88454e-06ZM157.5 244.125C205.342 244.125 244.125 205.342 244.125 157.5C244.125 109.658 205.342 70.875 157.5 70.875C109.658 70.875 70.875 109.658 70.875 157.5C70.875 205.342 109.658 244.125 157.5 244.125Z" fill="#F1F1F1"/>
</svg>
