<svg width="128" height="24" viewBox="0 0 128 24" fill="none" xmlns="http://www.w3.org/2000/svg">
<g id="logo">
<g id="LOGO">
<path id="star" d="M36.9814 0.749836C37.1212 0.451762 37.5452 0.451762 37.685 0.749836L38.5615 2.61768C38.6016 2.70329 38.6716 2.77131 38.7584 2.80901L40.6615 3.63635C40.9731 3.77181 40.9731 4.21374 40.6615 4.3492L38.7584 5.17654C38.6716 5.21424 38.6016 5.28226 38.5615 5.36787L37.685 7.23571C37.5452 7.53379 37.1212 7.53379 36.9814 7.23571L36.1049 5.36787C36.0648 5.28226 35.9948 5.21424 35.908 5.17654L34.0049 4.3492C33.6933 4.21374 33.6933 3.77181 34.0049 3.63635L35.908 2.80901C35.9948 2.77131 36.0648 2.70329 36.1049 2.61768L36.9814 0.749836Z" fill="url(#paint0_linear_3600_394)"/>
<g id="ViZBL">
<path id="Vector" d="M104.427 3.34668H111.723V18.8664H128V24.0003H104.427V3.34668Z" fill="#F1F1F1"/>
<path id="Vector_2" d="M71.668 23.9712V3.28809H91.7153C94.8419 3.28809 97.0489 3.70116 98.3364 4.58631C99.6545 5.47147 100.298 6.62217 100.298 8.00892V8.39249C100.298 9.01209 100.145 9.6022 99.8997 10.1038C99.6238 10.6054 99.2866 11.0184 98.8268 11.3135C98.3977 11.6381 97.9992 11.8741 97.6313 12.0216C97.2942 12.1987 96.9263 12.3462 96.5585 12.4347C97.0796 12.5232 97.57 12.7002 98.0605 12.9068C98.5509 13.1133 99.0721 13.4084 99.6545 13.7624C100.237 14.146 100.727 14.6771 101.065 15.3557C101.432 16.0048 101.616 16.772 101.616 17.6276V18.0112C101.616 21.9944 98.367 23.9712 91.8992 23.9712H71.668ZM78.9941 7.65485V11.0184H90.4585C92.1751 11.0184 93.0027 10.4578 93.0027 9.33665V9.27764C93.0027 8.18595 92.1751 7.65485 90.4585 7.65485H78.9941ZM91.1022 15.4147H78.9941V19.4569H91.1022C92.1751 19.4569 92.9414 19.2504 93.3705 18.8373C93.769 18.4538 93.9836 17.9817 93.9836 17.4211V17.3326C93.9836 16.0343 93.0333 15.4147 91.1022 15.4147Z" fill="#F1F1F1"/>
<path id="Vector_3" d="M43.4039 3.34668H69.1527V7.06434L53.3049 18.8959H69.3673V23.7348H43.1587V19.9876L58.5773 8.06751H43.4039V3.34668Z" fill="#F1F1F1"/>
<path id="Vector_4" d="M40.6732 9.01172V23.9118H33.7148V9.01172H40.6732Z" fill="#F1F1F1"/>
<path id="Vector_5" d="M20.9975 23.7348H11.9855L0 3.34668H8.18444L16.6754 18.3353L24.6453 3.34668H32.1553L20.9975 23.7348Z" fill="#F1F1F1"/>
</g>
</g>
</g>
<defs>
<linearGradient id="paint0_linear_3600_394" x1="34.1026" y1="0.888908" x2="40.3219" y2="7.30861" gradientUnits="userSpaceOnUse">
<stop stop-color="#F1F1F1"/>
<stop offset="0.505208" stop-color="#782AD5"/>
<stop offset="1" stop-color="#52B8FF"/>
</linearGradient>
</defs>
</svg>
