<svg width="64" height="64" viewBox="0 0 64 64" fill="none" xmlns="http://www.w3.org/2000/svg">
<g id="mdi:star" fill="none">
<path id="Vector" d="M33.0336 46.093C32.398 45.7094 31.6023 45.7094 30.9667 46.093L18.2996 53.7384C17.5428 54.1951 16.609 53.5174 16.8087 52.6563L20.1499 38.2459C20.3173 37.5243 20.072 36.7693 19.5125 36.2837L8.33765 26.5851C7.6704 26.006 8.02697 24.9095 8.90719 24.8336L23.6506 23.5623C24.3882 23.4987 25.0304 23.0327 25.3197 22.3511L31.0797 8.78151C31.4245 7.96914 32.5758 7.96914 32.9207 8.78151L38.6806 22.3511C38.9699 23.0327 39.6121 23.4987 40.3498 23.5623L55.0887 24.8332C55.9693 24.9092 56.3256 26.0066 55.6575 26.5854L44.4638 36.2825C43.9026 36.7686 43.6569 37.5256 43.8256 38.2486L47.1856 52.6516C47.3866 53.513 46.4523 54.192 45.695 53.7349L33.0336 46.093Z" stroke="#A0A0A0"/>
</g>
</svg>
