<svg width="64" height="64" viewBox="0 0 64 64" fill="none" xmlns="http://www.w3.org/2000/svg">
<g id="mdi:star">
<g id="Vector">
<path d="M31.2251 46.5211C31.7017 46.2334 32.2986 46.2334 32.7753 46.5211L45.4367 54.163C46.5726 54.8486 47.974 53.8301 47.6725 52.538L44.3125 38.135C44.186 37.5927 44.3703 37.025 44.7911 36.6604L55.9849 26.9633C56.9871 26.0951 56.4526 24.449 55.1316 24.3351L40.3927 23.0641C39.8395 23.0164 39.3578 22.6669 39.1408 22.1558L33.3809 8.58614C32.8637 7.3676 31.1366 7.3676 30.6194 8.58614L24.8595 22.1558C24.6425 22.6669 24.1609 23.0164 23.6076 23.0641L8.86424 24.3355C7.54389 24.4493 7.00906 26.0941 8.00992 26.9628L19.1848 36.6613C19.6044 37.0255 19.7883 37.5918 19.6629 38.133L16.3216 52.5434C16.0221 53.835 17.4228 54.8516 18.5579 54.1664L31.2251 46.5211Z" fill="#F1F1F1"/>
<path d="M31.2251 46.5211C31.7017 46.2334 32.2986 46.2334 32.7753 46.5211L45.4367 54.163C46.5726 54.8486 47.974 53.8301 47.6725 52.538L44.3125 38.135C44.186 37.5927 44.3703 37.025 44.7911 36.6604L55.9849 26.9633C56.9871 26.0951 56.4526 24.449 55.1316 24.3351L40.3927 23.0641C39.8395 23.0164 39.3578 22.6669 39.1408 22.1558L33.3809 8.58614C32.8637 7.3676 31.1366 7.3676 30.6194 8.58614L24.8595 22.1558C24.6425 22.6669 24.1609 23.0164 23.6076 23.0641L8.86424 24.3355C7.54389 24.4493 7.00906 26.0941 8.00992 26.9628L19.1848 36.6613C19.6044 37.0255 19.7883 37.5918 19.6629 38.133L16.3216 52.5434C16.0221 53.835 17.4228 54.8516 18.5579 54.1664L31.2251 46.5211Z" fill="url(#paint0_linear_3128_700)"/>
</g>
</g>
<defs>
<linearGradient id="paint0_linear_3128_700" x1="-2.49988" y1="-2" x2="76.9991" y2="14.5842" gradientUnits="userSpaceOnUse">
<stop stop-color="#FDA2FF"/>
<stop offset="0.505208" stop-color="#782AD5"/>
<stop offset="1" stop-color="#52B8FF"/>
</linearGradient>
</defs>
</svg>
