<svg width="18" height="18" viewBox="0 0 18 18" fill="none" xmlns="http://www.w3.org/2000/svg">
<path d="M10.3295 2.82125C10.417 2.77855 10.5146 2.76126 10.6114 2.77136C10.7081 2.78146 10.8001 2.81854 10.8768 2.87837L15.5498 6.5129C15.61 6.55969 15.6592 6.61918 15.6938 6.68714C15.7285 6.7551 15.7477 6.82985 15.7502 6.90609C15.7527 6.98233 15.7383 7.05817 15.7082 7.12824C15.678 7.1983 15.6328 7.26086 15.5757 7.31146L10.9028 11.4652C10.8279 11.5317 10.7355 11.5751 10.6365 11.5902C10.5376 11.6054 10.4364 11.5916 10.3451 11.5506C10.2538 11.5095 10.1763 11.443 10.122 11.3589C10.0677 11.2749 10.0388 11.1769 10.0388 11.0768V9.05812C9.79371 9.09965 9.47387 9.17235 9.10003 9.29696C8.19347 9.60018 6.96708 10.2097 5.73341 11.4444C5.65793 11.5202 5.56089 11.5708 5.45555 11.5894C5.35022 11.6079 5.24173 11.5935 5.14491 11.548C5.0481 11.5026 4.96768 11.4283 4.91466 11.3354C4.86163 11.2425 4.83858 11.1356 4.84866 11.0291C4.99716 9.39769 5.47276 8.20764 6.11971 7.34989C6.67498 6.60954 7.42958 6.0426 8.29524 5.71538C8.85356 5.50377 9.44223 5.38316 10.0388 5.35816V3.28855C10.0386 3.19124 10.0657 3.09583 10.1171 3.01321C10.1686 2.93058 10.2422 2.86407 10.3295 2.82125ZM2.25049 6.40387C2.25049 5.71534 2.524 5.05501 3.01087 4.56815C3.49773 4.08129 4.15806 3.80777 4.84658 3.80777H6.92346C7.06117 3.80777 7.19323 3.86247 7.29061 3.95985C7.38798 4.05722 7.44268 4.18928 7.44268 4.32699C7.44268 4.4647 7.38798 4.59676 7.29061 4.69413C7.19323 4.79151 7.06117 4.84621 6.92346 4.84621H4.84658C4.43347 4.84621 4.03727 5.01032 3.74515 5.30244C3.45304 5.59455 3.28893 5.99075 3.28893 6.40387V12.6345C3.28893 13.0476 3.45304 13.4438 3.74515 13.7359C4.03727 14.028 4.43347 14.1922 4.84658 14.1922H11.0772C11.4903 14.1922 11.8865 14.028 12.1786 13.7359C12.4708 13.4438 12.6349 13.0476 12.6349 12.6345V11.5961C12.6349 11.4584 12.6896 11.3263 12.787 11.2289C12.8843 11.1315 13.0164 11.0768 13.1541 11.0768C13.2918 11.0768 13.4239 11.1315 13.5212 11.2289C13.6186 11.3263 13.6733 11.4584 13.6733 11.5961V12.6345C13.6733 13.323 13.3998 13.9834 12.9129 14.4702C12.4261 14.9571 11.7657 15.2306 11.0772 15.2306H4.84658C4.15806 15.2306 3.49773 14.9571 3.01087 14.4702C2.524 13.9834 2.25049 13.323 2.25049 12.6345V6.40387Z" fill="#A0A0A0"/>
</svg>
