<svg width="30" height="30" viewBox="0 0 30 30" fill="none" xmlns="http://www.w3.org/2000/svg">
<path d="M15.9114 1.01786C15.557 0.233342 14.443 0.233343 14.0886 1.01786L10.1775 9.67771C10.0773 9.89956 9.89956 10.0773 9.67771 10.1775L1.01786 14.0886C0.233343 14.443 0.233343 15.557 1.01786 15.9114L9.67771 19.8225C9.89956 19.9227 10.0773 20.1004 10.1775 20.3223L14.0886 28.9821C14.443 29.7667 15.557 29.7667 15.9114 28.9821L19.8225 20.3223C19.9227 20.1004 20.1004 19.9227 20.3223 19.8225L28.9821 15.9114C29.7667 15.557 29.7667 14.443 28.9821 14.0886L20.3223 10.1775C20.1004 10.0773 19.9227 9.89956 19.8225 9.67771L15.9114 1.01786Z" fill="url(#paint0_linear_2446_60)"/>
<path d="M15.9114 1.01786C15.557 0.233342 14.443 0.233343 14.0886 1.01786L10.1775 9.67771C10.0773 9.89956 9.89956 10.0773 9.67771 10.1775L1.01786 14.0886C0.233343 14.443 0.233343 15.557 1.01786 15.9114L9.67771 19.8225C9.89956 19.9227 10.0773 20.1004 10.1775 20.3223L14.0886 28.9821C14.443 29.7667 15.557 29.7667 15.9114 28.9821L19.8225 20.3223C19.9227 20.1004 20.1004 19.9227 20.3223 19.8225L28.9821 15.9114C29.7667 15.557 29.7667 14.443 28.9821 14.0886L20.3223 10.1775C20.1004 10.0773 19.9227 9.89956 19.8225 9.67771L15.9114 1.01786Z" fill="#F1F1F1"/>
<path d="M15.9114 1.01786C15.557 0.233342 14.443 0.233343 14.0886 1.01786L10.1775 9.67771C10.0773 9.89956 9.89956 10.0773 9.67771 10.1775L1.01786 14.0886C0.233343 14.443 0.233343 15.557 1.01786 15.9114L9.67771 19.8225C9.89956 19.9227 10.0773 20.1004 10.1775 20.3223L14.0886 28.9821C14.443 29.7667 15.557 29.7667 15.9114 28.9821L19.8225 20.3223C19.9227 20.1004 20.1004 19.9227 20.3223 19.8225L28.9821 15.9114C29.7667 15.557 29.7667 14.443 28.9821 14.0886L20.3223 10.1775C20.1004 10.0773 19.9227 9.89956 19.8225 9.67771L15.9114 1.01786Z" fill="#050505"/>
<defs>
<linearGradient id="paint0_linear_2446_60" x1="27.4608" y1="2.56207" x2="2.52686" y2="27.3357" gradientUnits="userSpaceOnUse">
<stop stop-color="#FDA2FF"/>
<stop offset="0.505208" stop-color="#782AD5"/>
<stop offset="1" stop-color="#52B8FF"/>
</linearGradient>
</defs>
</svg>
