<svg width="40" height="32" viewBox="0 0 40 32" fill="none" xmlns="http://www.w3.org/2000/svg">
<g clip-path="url(#clip0_1923_297)">
<path fill-rule="evenodd" clip-rule="evenodd" d="M38.0001 16C38.0001 16.3978 37.842 16.7794 37.5607 17.0607C37.2794 17.342 36.8979 17.5 36.5001 17.5L7.61996 17.5003L13.06 22.9403C13.3249 23.2247 13.4692 23.6008 13.4623 23.9894C13.4555 24.378 13.298 24.7487 13.0232 25.0236C12.7484 25.2984 12.3776 25.4558 11.989 25.4627C11.6004 25.4695 11.2243 25.3253 10.94 25.0603L2.93996 17.0603C2.65906 16.7791 2.50128 16.3978 2.50128 16.0003C2.50128 15.6028 2.65906 15.2216 2.93996 14.9403L10.94 6.94031C11.2243 6.67535 11.6004 6.5311 11.989 6.53796C12.3776 6.54481 12.7484 6.70224 13.0232 6.97706C13.298 7.25189 13.4555 7.62266 13.4623 8.01126C13.4692 8.39986 13.3249 8.77596 13.06 9.06031L7.61996 14.5003L36.5001 14.5C36.8979 14.5 37.2794 14.658 37.5607 14.9393C37.842 15.2206 38.0001 15.6022 38.0001 16Z" fill="#F1F1F1"/>
</g>
<defs>
<clipPath id="clip0_1923_297">
<rect width="32" height="40" fill="white" transform="translate(0 32) rotate(-90)"/>
</clipPath>
</defs>
</svg>
