<svg width="24" height="24" viewBox="0 0 24 24" fill="none" xmlns="http://www.w3.org/2000/svg">
<path d="M12.8364 4.77853C12.3977 4.72756 11.9519 4.69834 11.5 4.69108C9.52536 4.70048 7.4784 5.2164 5.54084 6.20499C4.10223 6.96924 2.70085 8.04816 1.48383 9.37903C0.886114 10.0584 0.123261 11.0421 0 12.0917C0.0145667 13.0009 0.922933 14.123 1.48383 14.8044C2.62507 16.083 3.98995 17.131 5.54084 17.9784C5.59355 18.0059 5.64645 18.033 5.69946 18.0598L4.26058 20.7589L6.21568 22L16.7845 2.23541L14.9026 1L12.8364 4.77853ZM17.2991 6.12657L15.863 8.79999C16.5237 9.72194 16.9159 10.8589 16.9159 12.0917C16.9159 15.1645 14.4909 17.6557 11.4986 17.6557C11.3692 17.6557 11.2439 17.6407 11.1168 17.6316L10.1664 19.3988C10.6047 19.4492 11.0478 19.4859 11.5 19.4923C13.4765 19.4828 15.5223 18.9609 17.4578 17.9784C18.8964 17.2141 20.2991 16.1352 21.5162 14.8044C22.1139 14.125 22.8767 13.1413 23 12.0917C22.9854 11.1825 22.0771 10.0603 21.5162 9.37901C20.3749 8.10041 19.0087 7.05237 17.4578 6.20495C17.4054 6.17769 17.3518 6.15317 17.2991 6.12657ZM11.4986 6.52768C11.6298 6.52768 11.76 6.53332 11.8889 6.54275L10.7756 8.61304C9.21329 8.95327 8.04102 10.3811 8.04102 12.0902C8.04102 12.5195 8.11464 12.9305 8.25018 13.3115C8.25034 13.312 8.25003 13.3126 8.25018 13.3131L7.13415 15.3894C6.47192 14.4666 6.08128 13.3259 6.08128 12.0917C6.0813 9.01888 8.50633 6.52766 11.4986 6.52768ZM14.7372 10.8929L12.2286 15.5613C13.7825 15.2147 14.9464 13.7933 14.9464 12.0902C14.9464 11.6687 14.8681 11.2679 14.7372 10.8929Z" fill="#F1F1F1"/>
</svg>
