<svg width="20" height="16" viewBox="0 0 20 16" fill="none" xmlns="http://www.w3.org/2000/svg">
<g clip-path="url(#clip0_840_80)">
<path fill-rule="evenodd" clip-rule="evenodd" d="M0.999939 8C0.999939 7.80109 1.07896 7.61032 1.21961 7.46967C1.36026 7.32902 1.55103 7.25 1.74994 7.25L16.19 7.24985L13.47 4.52985C13.3375 4.38767 13.2654 4.19962 13.2688 4.00532C13.2722 3.81102 13.351 3.62564 13.4884 3.48822C13.6258 3.35081 13.8112 3.2721 14.0055 3.26867C14.1998 3.26524 14.3878 3.33737 14.53 3.46985L18.53 7.46985C18.6704 7.61047 18.7493 7.8011 18.7493 7.99985C18.7493 8.1986 18.6704 8.38922 18.53 8.52985L14.53 12.5298C14.3878 12.6623 14.1998 12.7345 14.0055 12.731C13.8112 12.7276 13.6258 12.6489 13.4884 12.5115C13.351 12.3741 13.2722 12.1887 13.2688 11.9944C13.2654 11.8001 13.3375 11.612 13.47 11.4698L16.19 8.74985L1.74994 8.75C1.55103 8.75 1.36026 8.67098 1.21961 8.53033C1.07896 8.38968 0.999939 8.19891 0.999939 8Z" fill="#F1F1F1"/>
</g>
<defs>
<clipPath id="clip0_840_80">
<rect width="16" height="20" fill="white" transform="translate(20) rotate(90)"/>
</clipPath>
</defs>
</svg>
