<svg width="24" height="24" viewBox="0 0 24 24" fill="none" xmlns="http://www.w3.org/2000/svg">
<mask id="path-1-inside-1_4690_354" fill="white">
<path d="M22 19.619V20.7143H2V19.619L4.22222 17.4286V10.8571C4.22222 7.4619 6.47778 4.4719 9.77778 3.5081V3.19048C9.77778 2.60953 10.0119 2.05237 10.4287 1.64158C10.8454 1.23078 11.4106 1 12 1C12.5894 1 13.1546 1.23078 13.5713 1.64158C13.9881 2.05237 14.2222 2.60953 14.2222 3.19048V3.5081C17.5222 4.4719 19.7778 7.4619 19.7778 10.8571V17.4286L22 19.619ZM14.2222 21.8095C14.2222 22.3905 13.9881 22.9476 13.5713 23.3584C13.1546 23.7692 12.5894 24 12 24C11.4106 24 10.8454 23.7692 10.4287 23.3584C10.0119 22.9476 9.77778 22.3905 9.77778 21.8095"/>
</mask>
<path d="M22 19.619V20.7143H2V19.619L4.22222 17.4286V10.8571C4.22222 7.4619 6.47778 4.4719 9.77778 3.5081V3.19048C9.77778 2.60953 10.0119 2.05237 10.4287 1.64158C10.8454 1.23078 11.4106 1 12 1C12.5894 1 13.1546 1.23078 13.5713 1.64158C13.9881 2.05237 14.2222 2.60953 14.2222 3.19048V3.5081C17.5222 4.4719 19.7778 7.4619 19.7778 10.8571V17.4286L22 19.619ZM14.2222 21.8095C14.2222 22.3905 13.9881 22.9476 13.5713 23.3584C13.1546 23.7692 12.5894 24 12 24C11.4106 24 10.8454 23.7692 10.4287 23.3584C10.0119 22.9476 9.77778 22.3905 9.77778 21.8095" fill="black"/>
<path d="M22 19.619V20.7143H2V19.619L4.22222 17.4286V10.8571C4.22222 7.4619 6.47778 4.4719 9.77778 3.5081V3.19048C9.77778 2.60953 10.0119 2.05237 10.4287 1.64158C10.8454 1.23078 11.4106 1 12 1C12.5894 1 13.1546 1.23078 13.5713 1.64158C13.9881 2.05237 14.2222 2.60953 14.2222 3.19048V3.5081C17.5222 4.4719 19.7778 7.4619 19.7778 10.8571V17.4286L22 19.619ZM14.2222 21.8095C14.2222 22.3905 13.9881 22.9476 13.5713 23.3584C13.1546 23.7692 12.5894 24 12 24C11.4106 24 10.8454 23.7692 10.4287 23.3584C10.0119 22.9476 9.77778 22.3905 9.77778 21.8095" fill="url(#paint0_linear_4690_354)"/>
<path d="M22 19.619H22.75V19.3052L22.5265 19.0849L22 19.619ZM22 20.7143V21.4643H22.75V20.7143H22ZM2 20.7143H1.25V21.4643H2V20.7143ZM2 19.619L1.4735 19.0849L1.25 19.3052V19.619H2ZM4.22222 17.4286L4.74872 17.9627L4.97222 17.7424V17.4286H4.22222ZM9.77778 3.5081L9.98804 4.22802L10.5278 4.07038V3.5081H9.77778ZM12 1V0.25V1ZM14.2222 3.5081H13.4722V4.07038L14.012 4.22802L14.2222 3.5081ZM19.7778 17.4286H19.0278V17.7424L19.2513 17.9627L19.7778 17.4286ZM21.25 19.619V20.7143H22.75V19.619H21.25ZM22 19.9643H2V21.4643H22V19.9643ZM2.75 20.7143V19.619H1.25V20.7143H2.75ZM2.5265 20.1532L4.74872 17.9627L3.69572 16.8944L1.4735 19.0849L2.5265 20.1532ZM4.97222 17.4286V10.8571H3.47222V17.4286H4.97222ZM4.97222 10.8571C4.97222 7.79974 7.00347 5.0997 9.98804 4.22802L9.56751 2.78817C5.95209 3.84411 3.47222 7.12407 3.47222 10.8571H4.97222ZM10.5278 3.5081V3.19048H9.02778V3.5081H10.5278ZM10.5278 3.19048C10.5278 2.81195 10.6802 2.44671 10.9552 2.17571L9.90215 1.10744C9.34358 1.65803 9.02778 2.4071 9.02778 3.19048H10.5278ZM10.9552 2.17571C11.2304 1.90435 11.6061 1.75 12 1.75V0.25C11.2152 0.25 10.4604 0.557217 9.90215 1.10744L10.9552 2.17571ZM12 1.75C12.3939 1.75 12.7696 1.90435 13.0448 2.17571L14.0978 1.10744C13.5396 0.557216 12.7848 0.25 12 0.25V1.75ZM13.0448 2.17571C13.3198 2.44671 13.4722 2.81195 13.4722 3.19048H14.9722C14.9722 2.4071 14.6564 1.65803 14.0978 1.10744L13.0448 2.17571ZM13.4722 3.19048V3.5081H14.9722V3.19048H13.4722ZM14.012 4.22802C16.9965 5.0997 19.0278 7.79974 19.0278 10.8571H20.5278C20.5278 7.12407 18.0479 3.84411 14.4325 2.78817L14.012 4.22802ZM19.0278 10.8571V17.4286H20.5278V10.8571H19.0278ZM19.2513 17.9627L21.4735 20.1532L22.5265 19.0849L20.3043 16.8944L19.2513 17.9627ZM13.4722 21.8095C13.4722 22.188 13.3198 22.5533 13.0448 22.8243L14.0978 23.8926C14.6564 23.342 14.9722 22.5929 14.9722 21.8095H13.4722ZM13.0448 22.8243C12.7696 23.0957 12.3939 23.25 12 23.25V24.75C12.7848 24.75 13.5396 24.4428 14.0978 23.8926L13.0448 22.8243ZM12 23.25C11.6061 23.25 11.2304 23.0957 10.9552 22.8243L9.90215 23.8926C10.4604 24.4428 11.2152 24.75 12 24.75V23.25ZM10.9552 22.8243C10.6802 22.5533 10.5278 22.1881 10.5278 21.8095H9.02778C9.02778 22.5929 9.34359 23.342 9.90215 23.8926L10.9552 22.8243Z" fill="#F1F1F1" mask="url(#path-1-inside-1_4690_354)"/>
<defs>
<linearGradient id="paint0_linear_4690_354" x1="-1.5" y1="-3" x2="28.8225" y2="23.0507" gradientUnits="userSpaceOnUse">
<stop stop-color="#FDA2FF"/>
<stop offset="0.505208" stop-color="#782AD5"/>
<stop offset="1" stop-color="#52B8FF"/>
</linearGradient>
</defs>
</svg>
