<svg width="20" height="20" viewBox="0 0 20 20" fill="none" xmlns="http://www.w3.org/2000/svg">
<g clip-path="url(#clip0_4690_345)">
<path d="M1.16679 0.701363L18.4551 17.7789L18.0075 18.2207L15.8672 16.1075L15.7211 15.9633H15.5159H2.225V15.7712L3.90168 14.1158L4.0504 13.969V13.76V8.35331C4.0504 7.41166 4.29315 6.47497 4.74761 5.63576L4.92638 5.30563L4.65922 5.04186L0.713083 1.14581L1.16679 0.701363ZM11.2647 2.30685V2.68154L11.6243 2.78674C14.1244 3.5181 15.8282 5.78454 15.8282 8.35331V11.4847L7.34967 3.13722C7.64113 2.99444 7.94439 2.87702 8.25374 2.78689L8.61389 2.68197V2.30685V2.04553C8.61389 1.70223 8.75196 1.37169 8.99982 1.12696C9.24791 0.88203 9.58572 0.7433 9.93928 0.7433C10.2928 0.7433 10.6307 0.88203 10.8787 1.12696C11.1266 1.37169 11.2647 1.70223 11.2647 2.04553V2.30685ZM10.8787 18.283C10.6307 18.5279 10.2928 18.6667 9.93928 18.6667C9.58572 18.6667 9.24791 18.5279 8.99982 18.283C8.87688 18.1616 8.78096 18.0191 8.71549 17.8644H11.1631C11.0976 18.0191 11.0017 18.1616 10.8787 18.283Z" fill="#F1F1F1"/>
<path d="M1.16679 0.701363L18.4551 17.7789L18.0075 18.2207L15.8672 16.1075L15.7211 15.9633H15.5159H2.225V15.7712L3.90168 14.1158L4.0504 13.969V13.76V8.35331C4.0504 7.41166 4.29315 6.47497 4.74761 5.63576L4.92638 5.30563L4.65922 5.04186L0.713083 1.14581L1.16679 0.701363ZM11.2647 2.30685V2.68154L11.6243 2.78674C14.1244 3.5181 15.8282 5.78454 15.8282 8.35331V11.4847L7.34967 3.13722C7.64113 2.99444 7.94439 2.87702 8.25374 2.78689L8.61389 2.68197V2.30685V2.04553C8.61389 1.70223 8.75196 1.37169 8.99982 1.12696C9.24791 0.88203 9.58572 0.7433 9.93928 0.7433C10.2928 0.7433 10.6307 0.88203 10.8787 1.12696C11.1266 1.37169 11.2647 1.70223 11.2647 2.04553V2.30685ZM10.8787 18.283C10.6307 18.5279 10.2928 18.6667 9.93928 18.6667C9.58572 18.6667 9.24791 18.5279 8.99982 18.283C8.87688 18.1616 8.78096 18.0191 8.71549 17.8644H11.1631C11.0976 18.0191 11.0017 18.1616 10.8787 18.283Z" fill="url(#paint0_linear_4690_345)"/>
<path d="M1.16679 0.701363L18.4551 17.7789L18.0075 18.2207L15.8672 16.1075L15.7211 15.9633H15.5159H2.225V15.7712L3.90168 14.1158L4.0504 13.969V13.76V8.35331C4.0504 7.41166 4.29315 6.47497 4.74761 5.63576L4.92638 5.30563L4.65922 5.04186L0.713083 1.14581L1.16679 0.701363ZM11.2647 2.30685V2.68154L11.6243 2.78674C14.1244 3.5181 15.8282 5.78454 15.8282 8.35331V11.4847L7.34967 3.13722C7.64113 2.99444 7.94439 2.87702 8.25374 2.78689L8.61389 2.68197V2.30685V2.04553C8.61389 1.70223 8.75196 1.37169 8.99982 1.12696C9.24791 0.88203 9.58572 0.7433 9.93928 0.7433C10.2928 0.7433 10.6307 0.88203 10.8787 1.12696C11.1266 1.37169 11.2647 1.70223 11.2647 2.04553V2.30685ZM10.8787 18.283C10.6307 18.5279 10.2928 18.6667 9.93928 18.6667C9.58572 18.6667 9.24791 18.5279 8.99982 18.283C8.87688 18.1616 8.78096 18.0191 8.71549 17.8644H11.1631C11.0976 18.0191 11.0017 18.1616 10.8787 18.283Z" stroke="#F1F1F1"/>
</g>
<defs>
<linearGradient id="paint0_linear_4690_345" x1="-3.35417" y1="-3.33333" x2="22.2046" y2="21.9184" gradientUnits="userSpaceOnUse">
<stop stop-color="#FDA2FF"/>
<stop offset="0.505208" stop-color="#782AD5"/>
<stop offset="1" stop-color="#52B8FF"/>
</linearGradient>
<clipPath id="clip0_4690_345">
<rect width="20" height="20" fill="white"/>
</clipPath>
</defs>
</svg>
