<svg width="24" height="24" viewBox="0 0 24 24" fill="none" xmlns="http://www.w3.org/2000/svg">
<path d="M15.5969 11.9984C15.5969 13.905 13.9836 15.4506 11.9935 15.4506C10.0034 15.4506 8.39012 13.905 8.39012 11.9984C8.39012 10.0917 10.0034 8.54614 11.9935 8.54614C13.9836 8.54612 15.5969 10.0918 15.5969 11.9984ZM12 4.8103C9.9395 4.81944 7.80372 5.32106 5.78192 6.28144C4.28076 7.02388 2.8178 8.07136 1.54788 9.36426C0.92416 10.0242 0.12862 10.9799 0 11.9995C0.0152 12.8827 0.9626 13.9729 1.54788 14.6348C2.73874 15.8769 4.1636 16.8951 5.78192 17.7183C7.66734 18.6334 9.75424 19.1602 12 19.1895C14.0625 19.1802 16.1978 18.6728 18.2173 17.7183C19.7185 16.9759 21.1822 15.9277 22.4521 14.6348C23.0758 13.9748 23.8714 13.0191 24 11.9995C23.9848 11.1163 23.0374 10.0261 22.4521 9.36422C21.2613 8.1221 19.8356 7.10464 18.2173 6.2814C16.3329 5.36708 14.2408 4.84388 12 4.8103ZM11.9985 6.59526C15.1209 6.59526 17.652 9.01514 17.652 12.0003C17.652 14.9854 15.1209 17.4053 11.9985 17.4053C8.8761 17.4053 6.34498 14.9854 6.34498 12.0003C6.34498 9.01514 8.8761 6.59526 11.9985 6.59526Z" fill="#F1F1F1"/>
<rect x="15.54" y="1" width="2.29389" height="22.723" transform="rotate(28.4907 15.54 1)" fill="#F1F1F1"/>
<rect x="17.5596" y="2.09009" width="2.29389" height="22.723" transform="rotate(28.4907 17.5596 2.09009)" fill="#1E1E1E"/>
</svg>
