<svg width="26" height="26" viewBox="0 0 26 26" fill="none" xmlns="http://www.w3.org/2000/svg">
<mask id="path-1-outside-1_4690_359" maskUnits="userSpaceOnUse" x="0" y="0" width="26" height="26" fill="black">
<rect fill="white" width="26" height="26"/>
<path d="M24.9414 15.7611C24.9728 15.8887 24.9787 16.0211 24.9589 16.151C24.9391 16.2808 24.8939 16.4055 24.826 16.5178C24.7581 16.6302 24.6687 16.728 24.563 16.8058C24.4573 16.8836 24.3373 16.9397 24.2099 16.9711L21.1339 17.721L21.9403 20.7346C21.9743 20.8615 21.983 20.9939 21.9659 21.1241C21.9487 21.2544 21.9062 21.3799 21.8405 21.4937C21.7749 21.6074 21.6876 21.7071 21.5834 21.7871C21.4793 21.867 21.3605 21.9256 21.2338 21.9596C21.1497 21.9839 21.0628 21.9973 20.9754 21.9996C20.7557 21.9994 20.5422 21.9266 20.3679 21.7926C20.1937 21.6586 20.0685 21.4709 20.0116 21.2584L19.0479 17.6585L13.9845 14.7324V20.5859L16.6884 23.292C16.7812 23.3849 16.8548 23.4952 16.9051 23.6166C16.9553 23.738 16.9811 23.8681 16.9811 23.9995C16.9811 24.1309 16.9553 24.261 16.9051 24.3824C16.8548 24.5038 16.7812 24.6141 16.6884 24.707C16.5957 24.7999 16.4855 24.8736 16.3643 24.9238C16.243 24.9741 16.1131 25 15.9819 25C15.8506 25 15.7207 24.9741 15.5995 24.9238C15.4782 24.8736 15.3681 24.7999 15.2753 24.707L12.9858 22.4133L10.6963 24.707C10.6035 24.7999 10.4933 24.8736 10.3721 24.9238C10.2508 24.9741 10.1209 25 9.98969 25C9.85846 25 9.72852 24.9741 9.60729 24.9238C9.48605 24.8736 9.3759 24.7999 9.28311 24.707C9.19032 24.6141 9.11671 24.5038 9.0665 24.3824C9.01628 24.261 8.99043 24.1309 8.99043 23.9995C8.99043 23.8681 9.01628 23.738 9.0665 23.6166C9.11671 23.4952 9.19032 23.3849 9.28311 23.292L11.9871 20.5859V14.7324L6.92494 17.6585L5.96119 21.2584C5.90429 21.4711 5.77887 21.659 5.60438 21.793C5.4299 21.927 5.21611 21.9997 4.9962 21.9996C4.90857 21.9994 4.82131 21.9881 4.73654 21.9658C4.6098 21.9319 4.49097 21.8733 4.38686 21.7933C4.28275 21.7134 4.19539 21.6137 4.12977 21.4999C4.06415 21.3862 4.02157 21.2606 4.00444 21.1304C3.98731 21.0001 3.99599 20.8678 4.02996 20.7409L4.83641 17.7273L1.76043 16.9773C1.50317 16.914 1.28157 16.751 1.14438 16.524C1.00719 16.2971 0.965642 16.025 1.02888 15.7674C1.09212 15.5098 1.25496 15.2879 1.48158 15.1505C1.70821 15.0132 1.98005 14.9716 2.2373 15.0349L5.91375 15.9386L10.9884 13L5.915 10.0676L2.23855 10.9713C2.16055 10.9907 2.08047 11.0003 2.00011 11.0001C1.75592 11.0003 1.52012 10.9108 1.33731 10.7487C1.1545 10.5866 1.03733 10.3631 1.00797 10.1204C0.978611 9.87764 1.03909 9.63256 1.17796 9.43145C1.31684 9.23034 1.5245 9.08714 1.76167 9.02893L4.83766 8.27897L4.03121 5.25911C3.96268 5.00285 3.99862 4.72984 4.13113 4.50012C4.26363 4.27039 4.48186 4.10279 4.73779 4.03417C4.99372 3.96554 5.2664 4.00153 5.49583 4.1342C5.72526 4.26688 5.89266 4.48538 5.96119 4.74163L6.92494 8.34147L11.9871 11.2676V5.4141L9.28311 2.70798C9.09571 2.52034 8.99043 2.26586 8.99043 2.00051C8.99043 1.86912 9.01628 1.73902 9.0665 1.61763C9.11671 1.49624 9.19032 1.38595 9.28311 1.29304C9.3759 1.20014 9.48605 1.12644 9.60729 1.07616C9.72852 1.02588 9.85846 1 9.98969 1C10.2547 1 10.5089 1.10541 10.6963 1.29304L12.9858 3.58669L15.2753 1.29304C15.4627 1.10541 15.7169 1 15.9819 1C16.2469 1 16.501 1.10541 16.6884 1.29304C16.8758 1.48067 16.9811 1.73516 16.9811 2.00051C16.9811 2.26586 16.8758 2.52034 16.6884 2.70798L13.9845 5.4141V11.2676L19.0466 8.34147L20.0104 4.74163C20.0789 4.48538 20.2463 4.26688 20.4757 4.1342C20.7052 4.00153 20.9778 3.96554 21.2338 4.03417C21.4897 4.10279 21.7079 4.27039 21.8404 4.50012C21.9729 4.72984 22.0089 5.00285 21.9403 5.25911L21.1339 8.27272L24.2099 9.02268C24.4537 9.07481 24.6692 9.21635 24.814 9.41948C24.9589 9.62261 25.0227 9.87264 24.9928 10.1204C24.9629 10.3682 24.8416 10.5959 24.6526 10.7587C24.4636 10.9214 24.2206 11.0076 23.9714 11.0001C23.8911 11.0003 23.811 10.9907 23.733 10.9713L20.0566 10.0676L14.9832 13L20.0566 15.9324L23.733 15.0287C23.8604 14.9973 23.9927 14.9913 24.1224 15.0112C24.252 15.031 24.3765 15.0762 24.4888 15.1442C24.601 15.2123 24.6987 15.3017 24.7764 15.4076C24.8541 15.5134 24.9101 15.6336 24.9414 15.7611Z"/>
</mask>
<path d="M24.9414 15.7611C24.9728 15.8887 24.9787 16.0211 24.9589 16.151C24.9391 16.2808 24.8939 16.4055 24.826 16.5178C24.7581 16.6302 24.6687 16.728 24.563 16.8058C24.4573 16.8836 24.3373 16.9397 24.2099 16.9711L21.1339 17.721L21.9403 20.7346C21.9743 20.8615 21.983 20.9939 21.9659 21.1241C21.9487 21.2544 21.9062 21.3799 21.8405 21.4937C21.7749 21.6074 21.6876 21.7071 21.5834 21.7871C21.4793 21.867 21.3605 21.9256 21.2338 21.9596C21.1497 21.9839 21.0628 21.9973 20.9754 21.9996C20.7557 21.9994 20.5422 21.9266 20.3679 21.7926C20.1937 21.6586 20.0685 21.4709 20.0116 21.2584L19.0479 17.6585L13.9845 14.7324V20.5859L16.6884 23.292C16.7812 23.3849 16.8548 23.4952 16.9051 23.6166C16.9553 23.738 16.9811 23.8681 16.9811 23.9995C16.9811 24.1309 16.9553 24.261 16.9051 24.3824C16.8548 24.5038 16.7812 24.6141 16.6884 24.707C16.5957 24.7999 16.4855 24.8736 16.3643 24.9238C16.243 24.9741 16.1131 25 15.9819 25C15.8506 25 15.7207 24.9741 15.5995 24.9238C15.4782 24.8736 15.3681 24.7999 15.2753 24.707L12.9858 22.4133L10.6963 24.707C10.6035 24.7999 10.4933 24.8736 10.3721 24.9238C10.2508 24.9741 10.1209 25 9.98969 25C9.85846 25 9.72852 24.9741 9.60729 24.9238C9.48605 24.8736 9.3759 24.7999 9.28311 24.707C9.19032 24.6141 9.11671 24.5038 9.0665 24.3824C9.01628 24.261 8.99043 24.1309 8.99043 23.9995C8.99043 23.8681 9.01628 23.738 9.0665 23.6166C9.11671 23.4952 9.19032 23.3849 9.28311 23.292L11.9871 20.5859V14.7324L6.92494 17.6585L5.96119 21.2584C5.90429 21.4711 5.77887 21.659 5.60438 21.793C5.4299 21.927 5.21611 21.9997 4.9962 21.9996C4.90857 21.9994 4.82131 21.9881 4.73654 21.9658C4.6098 21.9319 4.49097 21.8733 4.38686 21.7933C4.28275 21.7134 4.19539 21.6137 4.12977 21.4999C4.06415 21.3862 4.02157 21.2606 4.00444 21.1304C3.98731 21.0001 3.99599 20.8678 4.02996 20.7409L4.83641 17.7273L1.76043 16.9773C1.50317 16.914 1.28157 16.751 1.14438 16.524C1.00719 16.2971 0.965642 16.025 1.02888 15.7674C1.09212 15.5098 1.25496 15.2879 1.48158 15.1505C1.70821 15.0132 1.98005 14.9716 2.2373 15.0349L5.91375 15.9386L10.9884 13L5.915 10.0676L2.23855 10.9713C2.16055 10.9907 2.08047 11.0003 2.00011 11.0001C1.75592 11.0003 1.52012 10.9108 1.33731 10.7487C1.1545 10.5866 1.03733 10.3631 1.00797 10.1204C0.978611 9.87764 1.03909 9.63256 1.17796 9.43145C1.31684 9.23034 1.5245 9.08714 1.76167 9.02893L4.83766 8.27897L4.03121 5.25911C3.96268 5.00285 3.99862 4.72984 4.13113 4.50012C4.26363 4.27039 4.48186 4.10279 4.73779 4.03417C4.99372 3.96554 5.2664 4.00153 5.49583 4.1342C5.72526 4.26688 5.89266 4.48538 5.96119 4.74163L6.92494 8.34147L11.9871 11.2676V5.4141L9.28311 2.70798C9.09571 2.52034 8.99043 2.26586 8.99043 2.00051C8.99043 1.86912 9.01628 1.73902 9.0665 1.61763C9.11671 1.49624 9.19032 1.38595 9.28311 1.29304C9.3759 1.20014 9.48605 1.12644 9.60729 1.07616C9.72852 1.02588 9.85846 1 9.98969 1C10.2547 1 10.5089 1.10541 10.6963 1.29304L12.9858 3.58669L15.2753 1.29304C15.4627 1.10541 15.7169 1 15.9819 1C16.2469 1 16.501 1.10541 16.6884 1.29304C16.8758 1.48067 16.9811 1.73516 16.9811 2.00051C16.9811 2.26586 16.8758 2.52034 16.6884 2.70798L13.9845 5.4141V11.2676L19.0466 8.34147L20.0104 4.74163C20.0789 4.48538 20.2463 4.26688 20.4757 4.1342C20.7052 4.00153 20.9778 3.96554 21.2338 4.03417C21.4897 4.10279 21.7079 4.27039 21.8404 4.50012C21.9729 4.72984 22.0089 5.00285 21.9403 5.25911L21.1339 8.27272L24.2099 9.02268C24.4537 9.07481 24.6692 9.21635 24.814 9.41948C24.9589 9.62261 25.0227 9.87264 24.9928 10.1204C24.9629 10.3682 24.8416 10.5959 24.6526 10.7587C24.4636 10.9214 24.2206 11.0076 23.9714 11.0001C23.8911 11.0003 23.811 10.9907 23.733 10.9713L20.0566 10.0676L14.9832 13L20.0566 15.9324L23.733 15.0287C23.8604 14.9973 23.9927 14.9913 24.1224 15.0112C24.252 15.031 24.3765 15.0762 24.4888 15.1442C24.601 15.2123 24.6987 15.3017 24.7764 15.4076C24.8541 15.5134 24.9101 15.6336 24.9414 15.7611Z" fill="url(#paint0_linear_4690_359)"/>
<path d="M24.9414 15.7611C24.9728 15.8887 24.9787 16.0211 24.9589 16.151C24.9391 16.2808 24.8939 16.4055 24.826 16.5178C24.7581 16.6302 24.6687 16.728 24.563 16.8058C24.4573 16.8836 24.3373 16.9397 24.2099 16.9711L21.1339 17.721L21.9403 20.7346C21.9743 20.8615 21.983 20.9939 21.9659 21.1241C21.9487 21.2544 21.9062 21.3799 21.8405 21.4937C21.7749 21.6074 21.6876 21.7071 21.5834 21.7871C21.4793 21.867 21.3605 21.9256 21.2338 21.9596C21.1497 21.9839 21.0628 21.9973 20.9754 21.9996C20.7557 21.9994 20.5422 21.9266 20.3679 21.7926C20.1937 21.6586 20.0685 21.4709 20.0116 21.2584L19.0479 17.6585L13.9845 14.7324V20.5859L16.6884 23.292C16.7812 23.3849 16.8548 23.4952 16.9051 23.6166C16.9553 23.738 16.9811 23.8681 16.9811 23.9995C16.9811 24.1309 16.9553 24.261 16.9051 24.3824C16.8548 24.5038 16.7812 24.6141 16.6884 24.707C16.5957 24.7999 16.4855 24.8736 16.3643 24.9238C16.243 24.9741 16.1131 25 15.9819 25C15.8506 25 15.7207 24.9741 15.5995 24.9238C15.4782 24.8736 15.3681 24.7999 15.2753 24.707L12.9858 22.4133L10.6963 24.707C10.6035 24.7999 10.4933 24.8736 10.3721 24.9238C10.2508 24.9741 10.1209 25 9.98969 25C9.85846 25 9.72852 24.9741 9.60729 24.9238C9.48605 24.8736 9.3759 24.7999 9.28311 24.707C9.19032 24.6141 9.11671 24.5038 9.0665 24.3824C9.01628 24.261 8.99043 24.1309 8.99043 23.9995C8.99043 23.8681 9.01628 23.738 9.0665 23.6166C9.11671 23.4952 9.19032 23.3849 9.28311 23.292L11.9871 20.5859V14.7324L6.92494 17.6585L5.96119 21.2584C5.90429 21.4711 5.77887 21.659 5.60438 21.793C5.4299 21.927 5.21611 21.9997 4.9962 21.9996C4.90857 21.9994 4.82131 21.9881 4.73654 21.9658C4.6098 21.9319 4.49097 21.8733 4.38686 21.7933C4.28275 21.7134 4.19539 21.6137 4.12977 21.4999C4.06415 21.3862 4.02157 21.2606 4.00444 21.1304C3.98731 21.0001 3.99599 20.8678 4.02996 20.7409L4.83641 17.7273L1.76043 16.9773C1.50317 16.914 1.28157 16.751 1.14438 16.524C1.00719 16.2971 0.965642 16.025 1.02888 15.7674C1.09212 15.5098 1.25496 15.2879 1.48158 15.1505C1.70821 15.0132 1.98005 14.9716 2.2373 15.0349L5.91375 15.9386L10.9884 13L5.915 10.0676L2.23855 10.9713C2.16055 10.9907 2.08047 11.0003 2.00011 11.0001C1.75592 11.0003 1.52012 10.9108 1.33731 10.7487C1.1545 10.5866 1.03733 10.3631 1.00797 10.1204C0.978611 9.87764 1.03909 9.63256 1.17796 9.43145C1.31684 9.23034 1.5245 9.08714 1.76167 9.02893L4.83766 8.27897L4.03121 5.25911C3.96268 5.00285 3.99862 4.72984 4.13113 4.50012C4.26363 4.27039 4.48186 4.10279 4.73779 4.03417C4.99372 3.96554 5.2664 4.00153 5.49583 4.1342C5.72526 4.26688 5.89266 4.48538 5.96119 4.74163L6.92494 8.34147L11.9871 11.2676V5.4141L9.28311 2.70798C9.09571 2.52034 8.99043 2.26586 8.99043 2.00051C8.99043 1.86912 9.01628 1.73902 9.0665 1.61763C9.11671 1.49624 9.19032 1.38595 9.28311 1.29304C9.3759 1.20014 9.48605 1.12644 9.60729 1.07616C9.72852 1.02588 9.85846 1 9.98969 1C10.2547 1 10.5089 1.10541 10.6963 1.29304L12.9858 3.58669L15.2753 1.29304C15.4627 1.10541 15.7169 1 15.9819 1C16.2469 1 16.501 1.10541 16.6884 1.29304C16.8758 1.48067 16.9811 1.73516 16.9811 2.00051C16.9811 2.26586 16.8758 2.52034 16.6884 2.70798L13.9845 5.4141V11.2676L19.0466 8.34147L20.0104 4.74163C20.0789 4.48538 20.2463 4.26688 20.4757 4.1342C20.7052 4.00153 20.9778 3.96554 21.2338 4.03417C21.4897 4.10279 21.7079 4.27039 21.8404 4.50012C21.9729 4.72984 22.0089 5.00285 21.9403 5.25911L21.1339 8.27272L24.2099 9.02268C24.4537 9.07481 24.6692 9.21635 24.814 9.41948C24.9589 9.62261 25.0227 9.87264 24.9928 10.1204C24.9629 10.3682 24.8416 10.5959 24.6526 10.7587C24.4636 10.9214 24.2206 11.0076 23.9714 11.0001C23.8911 11.0003 23.811 10.9907 23.733 10.9713L20.0566 10.0676L14.9832 13L20.0566 15.9324L23.733 15.0287C23.8604 14.9973 23.9927 14.9913 24.1224 15.0112C24.252 15.031 24.3765 15.0762 24.4888 15.1442C24.601 15.2123 24.6987 15.3017 24.7764 15.4076C24.8541 15.5134 24.9101 15.6336 24.9414 15.7611Z" stroke="#F1F1F1" stroke-width="1.3" mask="url(#path-1-outside-1_4690_359)"/>
<defs>
<linearGradient id="paint0_linear_4690_359" x1="-5" y1="-4.66936" x2="28.2098" y2="27.8566" gradientUnits="userSpaceOnUse">
<stop stop-color="#FDA2FF"/>
<stop offset="0.505208" stop-color="#782AD5"/>
<stop offset="1" stop-color="#52B8FF"/>
</linearGradient>
</defs>
</svg>
