<svg width="20" height="20" viewBox="0 0 20 20" fill="none" xmlns="http://www.w3.org/2000/svg">
<path d="M11.5 1.99981V1.99971C11.5 1.97022 11.4922 1.94126 11.4773 1.91578C11.4625 1.8903 11.4412 1.86921 11.4155 1.85467C11.3899 1.84013 11.3608 1.83266 11.3313 1.83302C11.3019 1.83338 11.2731 1.84152 11.2478 1.85662L11.5 1.99981ZM11.5 1.99981L11.5 17.9998L11.5 18.0005C11.5 18.0301 11.4922 18.0591 11.4774 18.0846L11.9095 18.3362L11.4774 18.0846C11.4625 18.1101 11.4411 18.1313 11.4154 18.1458C11.3897 18.1604 11.3606 18.1678 11.3311 18.1674C11.3015 18.167 11.2726 18.1588 11.2473 18.1435L11.2466 18.1431L4.73998 14.2378L4.6212 14.1665H4.48267H2C1.16969 14.1665 0.5 13.4959 0.5 12.6665V7.33048C0.5 6.50017 1.17059 5.83048 2 5.83048H4.48267H4.62109L4.73981 5.75929L11.2477 1.85671L11.5 1.99981ZM17.2571 9.64093L16.9038 9.99423L17.2569 10.3478L18.7865 11.8796L18.5508 12.1152L17.0203 10.5837L16.6669 10.23L16.3132 10.5835L14.7815 12.1142L14.5459 11.8786L16.0774 10.3482L16.4314 9.99448L16.0774 9.6408L14.5459 8.11036L14.7815 7.8748L16.3132 9.40549L16.6665 9.75855L17.02 9.40562L18.5528 7.87492L18.7878 8.11023L17.2571 9.64093Z" stroke="#A0A0A0"/>
</svg>
