<svg width="20" height="20" viewBox="0 0 20 20" fill="none" xmlns="http://www.w3.org/2000/svg">
<path d="M11.4153 1.52222L11.4145 1.52173C11.3888 1.50715 11.3597 1.49966 11.3302 1.50001C11.3007 1.50036 11.2718 1.50855 11.2465 1.52373L4.73985 5.42637L4.62112 5.49759H4.48267H2C1.60235 5.49759 1.22097 5.65548 0.939693 5.93657C0.658456 6.21762 0.500309 6.59883 0.5 6.99642V12.3336C0.5 12.7314 0.658035 13.1129 0.93934 13.3942L0.585786 13.7478L0.93934 13.3942C1.22064 13.6756 1.60218 13.8336 2 13.8336H4.48267H4.62118L4.73994 13.9049L11.2477 17.81L11.4153 1.52222ZM11.4153 1.52222C11.441 1.53673 11.4624 1.5578 11.4773 1.58328C11.4921 1.60875 11.5 1.63772 11.5 1.66721V17.6669V17.667M11.4153 1.52222L11.5 17.667M11.5 17.667C11.5 17.6965 11.4922 17.7255 11.4773 17.751C11.4625 17.7764 11.4412 17.7975 11.4155 17.8121L11.662 18.2471M11.5 17.667L11.662 18.2471M11.662 18.2471L11.4155 17.8121C11.3899 17.8266 11.3608 17.8341 11.3313 17.8337M11.662 18.2471L11.3313 17.8337M17.8819 5.54681L17.7639 5.66475L17.8442 5.7452L17.8579 5.75435L17.8993 5.79993L17.926 5.82926L17.9348 5.83894L17.9431 5.84906C18.1672 6.12311 18.36 6.42131 18.518 6.73812M17.8819 5.54681L18.5182 6.73852C18.5181 6.73839 18.518 6.73825 18.518 6.73812M17.8819 5.54681L18.3536 6.01781L18.3541 6.01731L18.4324 5.93891C18.5755 6.14513 18.7032 6.36171 18.8143 6.5869L18.8156 6.58951C19.1596 7.27619 19.5 8.3 19.5 9.66159C19.5 11.0225 19.1586 12.0475 18.8158 12.7333L17.8819 5.54681ZM18.518 6.73812C18.8421 7.38511 19.1667 8.35849 19.1667 9.66159C19.1667 10.965 18.8406 11.938 18.5185 12.584M18.518 6.73812L18.5185 12.584M18.5185 12.584C18.3929 12.8378 18.245 13.0799 18.0763 13.3074L18.0734 13.3112C18.0261 13.3738 17.9764 13.4346 17.9245 13.4935L17.9137 13.5098L17.8784 13.545L17.7647 13.6583L18.0007 13.8947L18.0612 13.8344L18.0624 13.832L18.1199 13.7746L18.1224 13.7721L18.1226 13.7719L18.1291 13.7654L18.1291 13.7654L18.1381 13.7564L18.1841 13.705C18.2222 13.6614 18.2766 13.5956 18.342 13.5087L18.7413 13.8096L18.342 13.5087C18.4715 13.3369 18.6433 13.0771 18.8158 12.7334L18.5185 12.584ZM11.3313 17.8337C11.3019 17.8334 11.2732 17.8252 11.2479 17.8102L11.3313 17.8337Z" stroke="#A0A0A0"/>
</svg>
