<svg width="18" height="18" viewBox="0 0 18 18" fill="none" xmlns="http://www.w3.org/2000/svg">
<path d="M7.41178 10.7161L7.50017 10.8041L7.58839 10.7159L12.4422 5.86209L13.3235 6.74969L7.5 12.5732L4.67678 9.75L5.55767 8.86911L7.41178 10.7161ZM1.625 9C1.625 4.94404 4.94404 1.625 9 1.625C13.056 1.625 16.375 4.94404 16.375 9C16.375 13.056 13.056 16.375 9 16.375C4.94404 16.375 1.625 13.056 1.625 9ZM2.875 9C2.875 12.3765 5.62346 15.125 9 15.125C12.3765 15.125 15.125 12.3765 15.125 9C15.125 5.62346 12.3765 2.875 9 2.875C5.62346 2.875 2.875 5.62346 2.875 9Z" fill="#F1F1F1" stroke="#F1F1F1" stroke-width="0.25"/>
</svg>
